HIERARCHY
ROOT pelvis
{
  OFFSET 0 100 0
  CHANNELS 6 Xposition Yposition Zposition Zrotation Xrotation Yrotation
  JOINT pelvis_right_femur
  {
    OFFSET -10.78128 -3.44521 -0.5502486
    CHANNELS 3 Zrotation Xrotation Yrotation
    JOINT right_femur_tibia
    {
      OFFSET -0.8047443 -44.0398 -0.1307829
      CHANNELS 3 Zrotation Xrotation Yrotation
      JOINT right_tibia_foot
      {
        OFFSET 3.006224 -47.83518 -5
        CHANNELS 3 Zrotation Xrotation Yrotation
        End Site
        {
          OFFSET 0 -5 15
        }
      }
    }
  }
  JOINT pelvis_left_femur
  {
    OFFSET 10.78128 -3.44521 -0.5502486
    CHANNELS 3 Zrotation Xrotation Yrotation
    JOINT left_femur_tibia
    {
      OFFSET 0.8047443 -44.0398 -0.1307829
      CHANNELS 3 Zrotation Xrotation Yrotation
      JOINT left_tibia_foot
      {
        OFFSET -4.370144 -48.10324 -4.275266
        CHANNELS 3 Zrotation Xrotation Yrotation
        End Site
        {
          OFFSET 0 -5 15
        }
      }
    }
  }
  JOINT pelvis_spine1
  {
    OFFSET 0 6.468898 -3.129235
    CHANNELS 3 Zrotation Xrotation Yrotation
    JOINT spine1
    {
      OFFSET 0 23.15396 4.99043
      CHANNELS 3 Zrotation Xrotation Yrotation
      JOINT spine2
      {
        OFFSET 0 20.79997 -5.064912
        CHANNELS 3 Zrotation Xrotation Yrotation
        JOINT neck
        {
          OFFSET 0 14.38658 9.616178
          CHANNELS 3 Zrotation Xrotation Yrotation
          End Site
          {
            OFFSET 0 20 0
          }
        }
      }
      JOINT right_manubrium
      {
        OFFSET -5.722621 16.35077 3.967754
        CHANNELS 3 Zrotation Xrotation Yrotation
        JOINT right_clavicle
        {
          OFFSET -13.16364 1.694482 -4.693211
          CHANNELS 3 Zrotation Xrotation Yrotation
          JOINT right_humerus
          {
            OFFSET -28.5034 -0.3100689 -2.792744
            CHANNELS 3 Zrotation Xrotation Yrotation
            JOINT right_radius
            {
              OFFSET -25.15693 0.02248979 -1.271978
              CHANNELS 3 Zrotation Xrotation Yrotation
              End Site
              {
                OFFSET -15 0 0
              }
            }
          }
        }
      }
      JOINT left_manubrium
      {
        OFFSET 5.722621 16.35077 3.967754
        CHANNELS 3 Zrotation Xrotation Yrotation
        JOINT left_clavicle
        {
          OFFSET 13.16364 1.694482 -4.693211
          CHANNELS 3 Zrotation Xrotation Yrotation
          JOINT left_humerus
          {
            OFFSET 29.39168 -1.063119 -2.237045
            CHANNELS 3 Zrotation Xrotation Yrotation
            JOINT left_radius
            {
              OFFSET 24.59957 -0.9528479 0.9047498
              CHANNELS 3 Zrotation Xrotation Yrotation
              End Site
              {
                OFFSET 15 -0 -0
              }
            }
          }
        }
      }
    }
  }
}
MOTION
Frames: 19
Frame Time: 0.0416666666667
-1067.646 108.3111 2464.986 -7.23988 -3.442812 -66.80549 6.557597 2.373637 -0.6919785 -0 8.811709 -0 -12.52978 -4.442055 -1.997608 -0.7774023 -11.6689 -4.142803 -0 53.40555 -0 0.2562239 -4.02042 15.16658 -2.363001 -1.905096 6.409057 -0.7071621 12.17113 -4.543347 -0.08059026 22.83541 7.217687 7.763927 -15.72289 3.262591 5.336359 -21.44277 11.59248 81.8463 29.42812 -10.00495 -0 0 19.70021 -20.56132 7.998875 7.467071 7.465591 -23.90499 -7.176466 -96.03916 12.07967 26.44727 -0 0 0.566356 13.18422 16.29271 -3.459951
-1072.188 108.5169 2467.127 -7.371273 -3.465167 -67.43629 6.299136 6.464683 -0.3091657 -0 8.105027 -0 -11.92769 -7.440647 -2.239836 0.5583347 -15.82739 -3.461045 -0 44.66226 -0 0.271731 -4.033112 16.24895 -2.304457 -2.242375 7.046273 -0.68958 12.56152 -4.642522 -0.2584069 22.47989 6.864873 7.460713 -16.09205 2.940959 5.022152 -22.88765 11.62536 81.86184 28.92038 -9.604973 -0 0 21.40334 -20.46162 7.858638 7.761189 6.963938 -23.99036 -7.254158 -96.82617 11.86428 28.98361 -0 0 1.494236 12.32029 15.56636 -1.87355
-1076.709 108.1628 2469.342 -7.403881 -2.996495 -68.04527 6.295476 9.74423 0.03890651 -0 7.966492 -0 -11.45818 -10.68636 -2.388766 2.035739 -18.92336 -2.836757 -0 34.32235 -0 0.3708186 -3.73312 17.24137 -2.263359 -2.557343 7.623497 -0.6469683 12.91078 -4.773874 -0.4206588 22.14471 6.528054 7.164238 -16.41937 2.641729 4.741302 -24.18317 11.64134 81.91276 28.46216 -9.324277 -0 0 22.91827 -20.29421 7.742978 7.973187 6.485338 -24.10835 -7.32973 -97.50957 11.66978 31.23569 -0 0 2.222819 11.51547 14.87693 -0.3719058
-1081.312 107.3579 2471.702 -7.186867 -2.275962 -68.67414 6.191279 12.41426 0.2961011 -0 8.381688 -0 -11.15565 -13.58578 -2.374553 3.21398 -21.02675 -2.557197 -0 24.25357 -0 0.4343217 -3.239859 17.96528 -2.240197 -2.825468 8.099286 -0.5965295 13.19051 -4.903628 -0.549736 21.86663 6.231655 6.894658 -16.68107 2.396084 4.511029 -25.24401 11.6429 81.96925 28.09283 -9.123389 -0 0 24.15591 -20.10722 7.660535 8.124558 6.069988 -24.21363 -7.385 -98.06277 11.52901 33.07287 -0 0 2.770918 10.82432 14.3002 0.9293541
-1086.106 106.2759 2474.257 -6.785988 -1.656297 -69.33134 5.705212 14.75966 0.4459993 -0 9.535324 -0 -10.94294 -15.35545 -2.171586 3.701407 -22.14413 -2.858425 -0 16.0668 -0 0.3027167 -2.861676 18.42728 -2.232279 -3.030068 8.448449 -0.5552527 13.38567 -5.002388 -0.6363551 21.67 5.997581 6.673349 -16.86591 2.223682 4.342886 -26.02124 11.63551 82.00672 27.83764 -8.965915 -0 0 25.06742 -19.94806 7.611653 8.237492 5.751252 -24.27397 -7.409424 -98.47682 11.45546 34.42403 -0 0 3.173547 10.29057 13.88902 1.935549
-1091.188 105.125 2477.039 -6.435114 -1.440096 -69.99001 4.731776 16.9971 0.4840319 -0 11.78565 -0 -10.75604 -15.33226 -1.770359 3.287334 -22.25152 -3.862839 -0 10.79226 -0 -0.1332147 -2.901707 18.75104 -2.236124 -3.16282 8.662049 -0.533198 13.49364 -5.054719 -0.6801761 21.56291 5.842406 6.519463 -16.97402 2.130248 4.243015 -26.49816 11.62494 82.01306 27.70463 -8.836149 -0 0 25.63593 -19.84533 7.588147 8.321593 5.549835 -24.28034 -7.40292 -98.75094 11.44511 35.26635 -0 0 3.455442 9.941053 13.66357 2.589057
-1096.616 104.1343 2480.061 -6.358096 -1.75943 -70.5841 3.332898 19.11278 0.4114495 -0 15.53318 -0 -10.65103 -13.15311 -1.167769 1.99692 -21.33576 -5.526349 -0 8.710696 -0 -0.8455435 -3.514838 19.06096 -2.249645 -3.222449 8.743521 -0.5309107 13.52023 -5.061837 -0.687963 21.53923 5.776881 6.448025 -17.01361 2.109733 4.213514 -26.67998 11.61519 81.99021 27.68728 -8.745071 -0 0 25.8632 -19.80148 7.574348 8.368299 5.473068 -24.24742 -7.374723 -98.88538 11.48371 35.60701 -0 0 3.616746 9.785579 13.61303 2.872109
-1102.377 103.5369 2483.291 -6.643008 -2.541103 -71.02104 1.70924 20.75243 0.2397641 -0 21.07002 -0 -10.81294 -8.820705 -0.3717363 0.08560117 -19.40928 -7.611683 -0 9.408337 -0 -1.633917 -4.661287 19.43393 -2.272779 -3.212293 8.702847 -0.5410874 13.47514 -5.038026 -0.6703466 21.5841 5.80702 6.469621 -16.99653 2.149177 4.254134 -26.58197 11.6078 81.95128 27.7709 -8.725816 -0 0 25.75735 -19.79726 7.551132 8.353831 5.518553 -24.20658 -7.339675 -98.87781 11.55359 35.46472 -0 0 3.632511 9.822248 13.70624 2.795904
-1108.361 103.5261 2486.641 -7.222465 -3.538359 -71.21235 0.1801774 21.24372 -0.01933244 -0 28.37525 -0 -11.45745 -2.778985 0.5984896 -2.016023 -16.54155 -9.721401 -0 11.93056 -0 -2.180729 -6.142537 19.90883 -2.30655 -3.137816 8.551563 -0.5523945 13.36883 -5.004112 -0.6385569 21.6796 5.935015 6.590333 -16.93423 2.233556 4.36321 -26.22139 11.60234 81.91586 27.93847 -8.82294 -0 0 25.3266 -19.80288 7.501984 8.247714 5.678607 -24.1957 -7.314006 -98.72287 11.63683 34.85817 -0 0 3.461862 10.04392 13.90443 2.385287
-1114.361 104.1819 2489.967 -7.917712 -4.410625 -71.11008 -0.8865958 19.82556 -0.3605538 -0 36.82299 -0 -12.66862 3.992777 1.686192 -3.82261 -12.91466 -11.42077 -0 14.97404 -0 -2.208522 -7.697749 20.47232 -2.351424 -3.005189 8.300645 -0.5532962 13.21152 -4.981274 -0.6021259 21.80857 6.158722 6.810727 -16.83545 2.34878 4.537048 -25.61596 11.5972 81.90557 28.17325 -9.079993 -0 0 24.58106 -19.78958 7.418397 8.023012 5.942519 -24.24958 -7.311974 -98.41503 11.71551 33.80559 -0 0 3.061317 10.44146 14.16991 1.668951
-1120.131 105.4022 2493.115 -8.515941 -4.863491 -70.73099 -1.250307 16.09036 -0.7626324 -0 44.97028 -0 -14.23435 10.068 2.721169 -4.979294 -8.841139 -12.43532 -0 17.22583 -0 -1.698282 -9.152599 20.99715 -2.405874 -2.821444 7.961562 -0.5350418 13.01368 -4.986386 -0.5677691 21.95636 6.469644 7.123692 -16.70598 2.482605 4.767982 -24.78872 11.59045 81.94053 28.45826 -9.527428 -0 0 23.54094 -19.73852 7.302558 7.665958 6.295993 -24.39241 -7.343537 -97.95434 11.77136 32.33495 -0 0 2.39944 11.00223 14.46949 0.6790978
-1125.477 106.9024 2495.98 -8.859678 -4.810691 -70.1523 -0.9709659 10.38978 -1.18916 -0 50.80676 -0 -15.619 14.04855 3.390513 -5.420332 -4.692735 -12.7971 -0 17.85831 -0 -0.987977 -10.5457 21.23219 -2.465899 -2.595783 7.549105 -0.4939222 12.78699 -5.028471 -0.5389366 22.11171 6.8505 7.511991 -16.54991 2.62463 5.042391 -23.77564 11.58033 82.03524 28.77509 -10.17078 -0 0 22.24743 -19.64609 7.166851 7.183858 6.719259 -24.63133 -7.412336 -97.35388 11.78757 30.49959 -0 0 1.472204 11.70521 14.77547 -0.5419314
-1130.333 108.3086 2498.542 -8.890152 -4.420361 -69.48096 -0.3829749 3.754638 -1.656566 -0 52.60863 -0 -16.24625 15.23136 3.425638 -5.365584 -0.7849604 -12.77532 -0 16.85619 -0 -0.5465766 -12.07583 20.94188 -2.525856 -2.340696 7.083353 -0.4327241 12.54385 -5.105858 -0.5152708 22.26812 7.274256 7.947114 -16.37078 2.767091 5.340693 -22.63014 11.56572 82.19318 29.10486 -10.98029 -0 0 20.76941 -19.52514 7.031286 6.609411 7.186235 -24.95098 -7.513452 -96.64527 11.75456 28.3895 -0 0 0.3165774 12.516 15.06861 -1.934403
-1134.766 109.2915 2500.848 -8.611064 -3.969265 -68.81648 0.1252336 -2.720071 -2.252476 -0 49.82431 -0 -15.90492 13.9055 2.868776 -5.147588 2.69262 -12.62715 -0 14.85702 -0 -0.5686154 -13.86996 20.08948 -2.580304 -2.071442 6.588566 -0.3605523 12.29527 -5.205237 -0.4918543 22.42505 7.706214 8.391002 -16.17164 2.906906 5.640469 -21.41925 11.54632 82.40171 29.43223 -11.88702 -0 0 19.19978 -19.40079 6.92076 5.99834 7.666271 -25.31146 -7.631917 -95.87758 11.67752 26.12853 0 0 -0.9845167 13.38583 15.34403 -3.419568
-1138.928 109.6583 2502.978 -8.036241 -3.645635 -68.2262 0.3263193 -8.427915 -3.03745 -0 43.23408 -0 -14.80569 11.0594 2.034227 -5.025033 5.672998 -12.42472 -0 12.68396 -0 -0.8138996 -15.83223 18.87806 -2.625737 -1.803821 6.089592 -0.2902563 12.04873 -5.304629 -0.4594926 22.58724 8.109274 8.801342 -15.95428 3.046974 5.921404 -20.21301 11.52252 82.63185 29.7492 -12.7921 -0 0 17.64149 -19.30117 6.86223 5.418464 8.127956 -25.65438 -7.744444 -95.10802 11.57958 23.8568 0 0 -2.312874 14.2562 15.61467 -4.905712
-1143.002 109.371 2505.02 -7.191367 -3.479364 -67.74047 0.2219009 -13.28706 -3.962537 -0 34.39985 -0 -13.32699 7.853306 1.23991 -5.107557 8.17122 -12.0946 -0 11.00004 -0 -0.8213179 -17.7142 17.6391 -2.661264 -1.551646 5.608699 -0.2341243 11.80822 -5.380446 -0.407512 22.76081 8.450956 9.13979 -15.71994 3.194127 6.169177 -19.07365 11.49506 82.84572 30.05476 -13.58993 -0 0 16.18988 -19.24672 6.879223 4.93276 8.54336 -25.91862 -7.825651 -94.38941 11.49569 21.70806 0 0 -3.540684 15.06781 15.90532 -6.299419
-1147.167 108.5164 2507.054 -6.145879 -3.396986 -67.36201 -0.02282184 -17.44502 -4.890613 -0 25.00163 -0 -11.82529 5.236411 0.6544034 -5.37606 10.24412 -11.54978 -0 10.22861 -0 -0.2388056 -19.25468 16.67142 -2.688098 -1.325245 5.164647 -0.1999652 11.57658 -5.415461 -0.3284764 22.948 8.709742 9.38055 -15.47223 3.354052 6.376453 -18.04998 11.46487 83.00848 30.34967 -14.1962 -0 0 14.91942 -19.24375 6.98323 4.583619 8.891418 -26.05943 -7.856453 -93.76117 11.45948 19.79239 0 0 -4.560784 15.76977 16.23778 -7.518308
-1151.574 107.2634 2509.144 -5.021788 -3.299153 -67.07746 -0.1779755 -21.00286 -5.659946 -0 16.44787 -0 -10.58754 3.783065 0.3080104 -5.732439 11.95772 -10.77063 -0 10.62053 -0 0.9719056 -20.24337 16.10987 -2.708267 -1.131296 4.773293 -0.1896281 11.35821 -5.403379 -0.222037 23.14403 8.878046 9.515318 -15.22002 3.526494 6.541132 -17.17717 11.43331 83.09814 30.63025 -14.56655 -0 0 13.8786 -19.28553 7.16722 4.385864 9.159744 -26.06055 -7.830049 -93.24697 11.49079 18.18837 0 0 -5.307649 16.3262 16.61643 -8.501949
-1156.346 105.828 2511.322 -3.975718 -3.105857 -66.86604 -0.01703285 -23.88373 -6.12407 -0 9.760479 -0 -9.822339 3.656038 0.1558296 -6.042568 13.35412 -9.811596 -0 12.34305 -0 2.506322 -20.51762 15.86843 -2.723144 -0.9736798 4.448267 -0.2004109 11.16049 -5.348112 -0.09555366 23.33771 8.960518 9.552038 -14.9776 3.703738 6.663254 -16.47967 11.40257 83.10894 30.88553 -14.69821 -0 0 13.09299 -19.3595 7.406933 4.33101 9.344407 -25.93397 -7.752581 -92.85773 11.59046 16.94462 0 0 -5.760841 16.71861 17.02357 -9.217579
